<?xml version="1.0" encoding="UTF-8"?>
<!DOCTYPE svg PUBLIC "-//W3C//DTD SVG 1.1//EN" "http://www.w3.org/Graphics/SVG/1.1/DTD/svg11.dtd">
<svg xmlns="http://www.w3.org/2000/svg" version="1.1" width="1080px" height="1080px" style="shape-rendering:geometricPrecision; text-rendering:geometricPrecision; image-rendering:optimizeQuality; fill-rule:evenodd; clip-rule:evenodd" xmlns:xlink="http://www.w3.org/1999/xlink">
<g><path style="opacity:0.985" fill="#848584" d="M 536.5,-0.5 C 541.5,-0.5 546.5,-0.5 551.5,-0.5C 560.255,1.03871 568.255,4.53871 575.5,10C 740,174.5 904.5,339 1069,503.5C 1074.38,511.151 1077.88,519.485 1079.5,528.5C 1079.5,532.833 1079.5,537.167 1079.5,541.5C 1077.54,551.425 1073.37,560.425 1067,568.5C 900.5,735 734,901.5 567.5,1068C 559.003,1074.1 549.669,1077.94 539.5,1079.5C 536.5,1079.5 533.5,1079.5 530.5,1079.5C 519.392,1077.62 509.392,1073.12 500.5,1066C 338.694,904.194 176.86,742.36 15,580.5C 6.5967,571.693 1.43003,561.36 -0.5,549.5C -0.5,545.5 -0.5,541.5 -0.5,537.5C 1.12377,528.485 4.62377,520.151 10,512.5C 177.5,345 345,177.5 512.5,10C 519.745,4.53871 527.745,1.03871 536.5,-0.5 Z M 350.5,252.5 C 382.478,251.718 404.978,265.718 418,294.5C 418.977,296.74 419.477,299.073 419.5,301.5C 429.833,301.5 440.167,301.5 450.5,301.5C 459.113,276.237 476.947,262.904 504,261.5C 529.358,262.998 547.025,275.331 557,298.5C 557.311,300.556 557.811,302.556 558.5,304.5C 569.167,305.833 579.833,305.833 590.5,304.5C 596.366,288.467 607.366,277.634 623.5,272C 651.526,268.762 670.692,280.262 681,306.5C 684.286,326.654 678.119,343.154 662.5,356C 639.144,369.562 617.978,366.729 599,347.5C 596.04,342.414 593.206,337.247 590.5,332C 579.833,331.333 569.167,331.333 558.5,332C 554.934,344.413 548.268,354.747 538.5,363C 508.602,381.822 481.769,377.988 458,351.5C 454.778,346.124 452.278,340.458 450.5,334.5C 440.167,334.5 429.833,334.5 419.5,334.5C 412.879,359.121 397.212,374.788 372.5,381.5C 371.334,401.158 371.167,420.825 372,440.5C 373.076,444.146 375.243,446.98 378.5,449C 402.498,449.5 426.498,449.667 450.5,449.5C 459.547,424.699 477.38,411.365 504,409.5C 532.002,411.849 550.169,426.349 558.5,453C 568.849,453.832 579.183,453.666 589.5,452.5C 600.356,427.403 619.356,416.903 646.5,421C 663.541,427.042 674.874,438.708 680.5,456C 691.161,456.5 701.828,456.667 712.5,456.5C 713.173,450.818 715.673,446.151 720,442.5C 720.483,441.552 720.649,440.552 720.5,439.5C 724.006,438.912 726.673,437.078 728.5,434C 741.222,429.34 753.889,429.34 766.5,434C 768.599,436.767 771.266,438.767 774.5,440C 784.235,451.867 787.068,465.367 783,480.5C 772.612,500.27 756.446,507.437 734.5,502C 729.898,499.196 725.232,496.696 720.5,494.5C 719.712,490.934 717.878,487.934 715,485.5C 713.456,482.095 712.289,478.595 711.5,475C 701.151,474.168 690.817,474.334 680.5,475.5C 676.976,486.577 670.976,495.91 662.5,503.5C 657.112,506.861 651.446,509.694 645.5,512C 618.811,515.323 600.144,504.657 589.5,480C 579.167,479.333 568.833,479.333 558.5,480C 550.119,506.863 531.785,521.363 503.5,523.5C 478.37,521.853 460.87,509.52 451,486.5C 450.506,484.866 450.34,483.199 450.5,481.5C 420.826,481.833 391.159,481.5 361.5,480.5C 353.711,478.864 347.545,474.864 343,468.5C 341.558,464.128 340.225,459.795 339,455.5C 338.667,430.5 338.333,405.5 338,380.5C 309.51,369.342 294.01,348.508 291.5,318C 293.111,291.091 305.777,271.424 329.5,259C 336.402,256.085 343.402,253.919 350.5,252.5 Z M 355.5,541.5 C 387.959,543.31 408.959,559.644 418.5,590.5C 428.5,590.5 438.5,590.5 448.5,590.5C 457.499,565.703 475.332,552.37 502,550.5C 535.473,553.792 554.14,572.126 558,605.5C 557.943,625.123 550.109,641.289 534.5,654C 530.007,656.079 525.674,658.412 521.5,661C 519.866,661.494 518.199,661.66 516.5,661.5C 516.333,681.169 516.5,700.836 517,720.5C 517.925,721.047 518.758,721.713 519.5,722.5C 542.826,723.666 566.16,723.833 589.5,723C 600.069,698.377 618.736,687.71 645.5,691C 656.041,694.899 664.874,701.065 672,709.5C 675.361,714.888 678.194,720.554 680.5,726.5C 691.146,727.499 701.813,727.832 712.5,727.5C 712.831,721.675 715.331,717.008 720,713.5C 720.483,712.552 720.649,711.552 720.5,710.5C 723.787,709.736 726.454,707.903 728.5,705C 752.307,695.046 770.473,701.212 783,723.5C 784.953,732.505 784.953,741.505 783,750.5C 780.196,755.102 777.696,759.768 775.5,764.5C 774.448,764.351 773.448,764.517 772.5,765C 761.421,774.425 748.754,777.092 734.5,773C 722.864,766.704 714.864,757.37 710.5,745C 700.833,744.333 691.167,744.333 681.5,745C 675.966,763.199 664.299,775.533 646.5,782C 618.819,786.08 599.653,775.246 589,749.5C 587.933,748.809 586.766,748.309 585.5,748C 562.502,747.5 539.502,747.333 516.5,747.5C 516.333,780.835 516.5,814.168 517,847.5C 518.255,848.211 519.421,849.044 520.5,850C 543.167,850.667 565.833,850.667 588.5,850C 592.634,841.527 597.968,833.86 604.5,827C 625.716,812.277 646.383,813.111 666.5,829.5C 681.492,845.356 684.658,863.356 676,883.5C 663.904,904.793 645.737,912.959 621.5,908C 605.167,902.333 594.167,891.333 588.5,875C 561.833,874.667 535.167,874.333 508.5,874C 503.719,873.479 499.719,871.479 496.5,868C 494.078,863.99 492.078,859.823 490.5,855.5C 489.833,791.167 489.167,726.833 488.5,662.5C 467.912,656.911 454.578,643.911 448.5,623.5C 438.5,623.5 428.5,623.5 418.5,623.5C 411.384,649.778 394.384,665.611 367.5,671C 334.706,674.853 310.873,662.019 296,632.5C 284.656,599.191 293.489,572.024 322.5,551C 332.963,545.472 343.963,542.306 355.5,541.5 Z"/></g>
</svg>
